<?xml version="1.0" encoding="UTF-8" standalone="no"?>
<svg class="site-logo" width="37px" height="37px" viewBox="0 0 37 37" version="1.1" xmlns="http://www.w3.org/2000/svg" xmlns:xlink="http://www.w3.org/1999/xlink">
    <!-- Generator: Sketch 3.7 (28169) - http://www.bohemiancoding.com/sketch -->
    <title>Shape</title>
    <desc>Created with Sketch.</desc>
    <defs></defs>
    <g id="Page-1" stroke="none" stroke-width="1" fill="none" fill-rule="evenodd">
        <path d="M18.7856381,0.506904516 C18.8489119,0.506904516 18.9117957,0.506244774 18.9749266,0.506904516 C28.8478487,0.610079995 36.9194716,8.76225235 36.9194716,18.7859292 C36.9194716,27.9209834 30.2121611,35.4218816 21.5492495,36.7609368 C21.5693958,36.6592978 21.5871072,36.5273605 21.5871072,36.4189176 C21.5871072,35.4084866 20.7763953,34.5948153 19.7699381,34.5948153 L17.8391959,34.5948153 L14.0534269,34.5948153 C13.7838801,34.5948153 13.5234192,34.3328743 13.5234192,34.0627855 C13.5234192,33.7919671 13.7838801,33.4927536 14.0534269,33.4927536 L24.8428685,33.4927536 L28.0986298,33.4927536 C29.1051113,33.4927536 29.9536566,32.6788391 29.9536566,31.6686513 C29.9536566,30.7030932 29.1051113,29.9205533 28.0986298,29.9205533 L17.574192,29.9205533 C17.3047059,29.9205533 17.0063267,29.6592203 17.0063267,29.3885235 C17.0063267,28.9863698 17.3047059,28.7424873 17.574192,28.7424873 L23.0256994,28.7424873 L24.9564416,28.7424873 C25.9182328,28.7424873 26.6978953,27.9599474 26.6978953,26.9943893 C26.6978953,26.0290744 25.9182328,25.2462913 24.9564416,25.2462913 L23.0256994,25.2462913 L11.7441078,25.2462913 C11.4746216,25.2462913 11.2141001,25.0028953 11.2141001,24.6002551 C11.2141001,24.3300447 11.4746216,24.0682253 11.7441078,24.0682253 L26.8114684,24.0682253 C27.817962,24.0682253 28.6286375,23.2856854 28.6286375,22.3201273 C28.6286375,21.3099395 27.817962,20.4580229 26.8114684,20.4580229 L17.574192,20.4580229 C17.1734578,20.4580229 16.9306113,20.1966898 16.9306113,19.9259931 C16.9306113,19.6550531 17.1734578,19.3939632 17.574192,19.3939632 L18.1799151,19.3939632 L20.1106573,19.3939632 C21.0724364,19.3939632 21.852111,18.5420467 21.852111,17.5318589 C21.852111,16.5663007 21.0724364,15.7837609 20.1106573,15.7837609 L18.1799151,15.7837609 L15.1891576,15.7837609 C14.9194291,15.7837609 14.6591499,15.5224278 14.6591499,15.2517311 C14.6591499,14.8495773 14.9196714,14.6056948 15.1891576,14.6056948 L24.5778647,14.6056948 C25.584322,14.6056948 26.4328915,13.823155 26.4328915,12.8575968 C26.4328915,11.8922819 25.584322,11.1094989 24.5778647,11.1094989 L22.7606956,11.1094989 L12.9176962,11.1094989 C12.6481252,11.1094989 12.3498308,10.8661028 12.3498308,10.4634626 C12.3498308,10.1932523 12.6481252,9.93143282 12.9176962,9.93143282 L19.5806496,9.93143282 C20.5871069,9.93143282 21.4356764,9.14889295 21.4356764,8.18333483 C21.4356764,7.173147 20.5871069,6.32123044 19.5806496,6.32123044 L17.7256228,6.32123044 L15.7948806,6.32123044 C15.5253339,6.32123044 15.264873,6.05989739 15.264873,5.78920062 C15.264873,5.51826063 15.5253339,5.2571708 15.7948806,5.2571708 L21.0949572,5.2571708 C22.1014266,5.2571708 22.9121263,4.44337798 22.9121263,3.43306854 C22.9121263,2.46763203 22.1014266,1.64696842 21.0949572,1.64696842 L18.7856381,1.64696842 C18.3845647,1.64696842 18.1799151,1.38587859 18.1799151,1.1149386 C18.1799151,0.712784857 18.3848433,0.506904516 18.7856381,0.506904516 L18.7856381,0.506904516 Z M16.9306113,0.620910906 C16.967936,0.617104613 17.0067992,0.624498308 17.0441844,0.620910906 C16.9956781,0.785749555 16.968469,0.933946675 16.968469,1.1149386 C16.968469,2.08049673 17.7794231,2.86303659 18.7856381,2.86303659 L21.0949572,2.86303659 C21.4957036,2.86303659 21.7006802,3.16237177 21.7006802,3.43306854 C21.7006802,3.83522229 21.4957036,4.04110263 21.0949572,4.04110263 L15.7948806,4.04110263 C14.8330893,4.04110263 14.0534269,4.82352089 14.0534269,5.78920062 C14.0534269,6.75463714 14.8330893,7.53729861 15.7948806,7.53729861 L17.7256228,7.53729861 L19.5806496,7.53729861 C19.9813839,7.53729861 20.2242303,7.78118108 20.2242303,8.18333483 C20.2242303,8.4540316 19.9813839,8.71536465 19.5806496,8.71536465 L12.9176962,8.71536465 C11.9559049,8.71536465 11.1383848,9.49814773 11.1383848,10.4634626 C11.1383848,11.4738937 11.9559049,12.325567 12.9176962,12.325567 L22.7606956,12.325567 L24.5778647,12.325567 C24.9785989,12.325567 25.2214454,12.5875081 25.2214454,12.8575968 C25.2214454,13.1284152 24.9785989,13.3896267 24.5778647,13.3896267 L15.1891576,13.3896267 C14.2273784,13.3896267 13.4477038,14.2415432 13.4477038,15.2517311 C13.4477038,16.2172892 14.2276207,16.999829 15.1891576,16.999829 L18.1799151,16.999829 L20.1106573,16.999829 C20.3801434,16.999829 20.6406649,17.2611621 20.6406649,17.5318589 C20.6406649,17.9340126 20.3801434,18.1778951 20.1106573,18.1778951 L18.1799151,18.1778951 L17.574192,18.1778951 C16.5677348,18.1778951 15.7191652,18.9603133 15.7191652,19.9259931 C15.7191652,20.8914296 16.5677348,21.6740911 17.574192,21.6740911 L26.8114684,21.6740911 C27.2122632,21.6740911 27.4171914,21.9179735 27.4171914,22.3201273 C27.4171914,22.5908241 27.2122632,22.8521571 26.8114684,22.8521571 L11.7441078,22.8521571 C10.7823286,22.8521571 10.0026541,23.6349402 10.0026541,24.6002551 C10.0026541,25.6106861 10.7823286,26.4623595 11.7441078,26.4623595 L23.0256994,26.4623595 L24.9564416,26.4623595 C25.2260126,26.4623595 25.4864492,26.7243006 25.4864492,26.9943893 C25.4864492,27.2652077 25.2260126,27.5264191 24.9564416,27.5264191 L23.0256994,27.5264191 L17.574192,27.5264191 C16.6124129,27.5264191 15.7948806,28.3783357 15.7948806,29.3885235 C15.7948806,30.3540816 16.6124129,31.1366215 17.574192,31.1366215 L28.0986298,31.1366215 C28.4994125,31.1366215 28.7422106,31.3977113 28.7422106,31.6686513 C28.7422106,32.0708051 28.4994125,32.2766854 28.0986298,32.2766854 L24.8428685,32.2766854 L14.0534269,32.2766854 C13.0916356,32.2766854 12.3119731,33.0972274 12.3119731,34.0627855 C12.3119731,35.0281004 13.0916356,35.8108835 14.0534269,35.8108835 L17.8391959,35.8108835 L19.7699381,35.8108835 C20.1706723,35.8108835 20.3756611,36.016399 20.3756611,36.4189176 C20.3756611,36.6109348 20.1801337,36.8316511 19.9213688,36.8749432 C19.8546424,36.889463 19.7903727,36.915268 19.7320804,36.9509474 C19.4182601,36.96725 19.1033071,36.9889496 18.7856381,36.9889496 C8.73245285,36.9889496 0.576089275,28.8743091 0.576089275,18.7859292 C0.576089275,9.32864303 7.75339666,1.55776472 16.9306113,0.620910906 L16.9306113,0.620910906 Z" id="Shape" fill="#4A4A4A" transform="translate(18.747780, 18.747780) rotate(45.000000) translate(-18.747780, -18.747780) "></path>
    </g>
</svg>
